<svg id="Vrstva_1" data-name="Vrstva 1" xmlns="http://www.w3.org/2000/svg" width="40" height="480" viewBox="0 0 40 480">
   <title>form_icons</title>
   <path d="M29.6,25.38C29,24.45,27,23.87,25,23a23.22,23.22,0,0,1-2.47-1.12l0-1.92a3.59,3.59,0,0,0,1-2.38c.47.14,1-.7,1-1.14s-.06-1.6-.63-1.48a11.86,11.86,0,0,0,.16-2.1,3.83,3.83,0,0,0-4-3.16,3.82,3.82,0,0,0-4,3.16,11.71,11.71,0,0,0,.16,2.1c-.57-.12-.66,1.05-.63,1.48s.52,1.27,1,1.14a3.59,3.59,0,0,0,1,2.38l0,1.92A23.22,23.22,0,0,1,15,23c-2,.83-4,1.41-4.61,2.35S10,30.25,10,30.25H30S30.14,26.22,29.6,25.38Z" style="fill:#60DDC3"/>
   <path d="M29.6,65.38C29,64.45,27,63.87,25,63a23.22,23.22,0,0,1-2.47-1.12l0-1.92a3.59,3.59,0,0,0,1-2.38c.47.14,1-.7,1-1.14s-.06-1.6-.63-1.48a11.86,11.86,0,0,0,.16-2.1,3.83,3.83,0,0,0-4-3.16,3.82,3.82,0,0,0-4,3.16,11.71,11.71,0,0,0,.16,2.1c-.57-.12-.66,1.05-.63,1.48s.52,1.27,1,1.14a3.59,3.59,0,0,0,1,2.38l0,1.92A23.22,23.22,0,0,1,15,63c-2,.83-4,1.41-4.61,2.35S10,70.25,10,70.25H30S30.14,66.22,29.6,65.38Z" style="fill:#60DDC3"/>
   <path d="M20,90.15A9.85,9.85,0,1,0,29.85,100,9.85,9.85,0,0,0,20,90.15Zm2.69,15h0c.06,0,.07,0,.12-.07a.83.83,0,0,0,.07.34c-.14-.54.41-.56.66-.88.09-.13.25-.47.37-.52a.35.35,0,0,1,0,.31c0-.08,0,0,0,0a.71.71,0,0,1-.07.31.11.11,0,0,1,0-.06c-.44.35-.43,1.36-1,1.61-.32.13-.28-.3-.16-.45s-.07-.37,0-.6h0c-.11,0-.21-.29-.21-.45s.19-.1.2-.05a1.78,1.78,0,0,0,.18-.34C22.9,104.52,22.58,105,22.69,105.13Zm4.43-6.3c-.16-.32-.31-.68-.43-.87s-.34-.87-.65-1.12a.22.22,0,0,1,0,.28.68.68,0,0,1-.38-.28c0-.07.16.09.06-.11-.25,0-.43-.23-.64-.37-.36,0-.76.26-1.13,0-.09-.05-.17-.35-.3-.18a.2.2,0,0,1-.25.06c-.41-.13-.59-.48-1-.49,0,.16.27.39.4.47s.28.52.3.14c.24.14.07.44.41.33.26.1.19-.32.24-.44.08,0,.13.25.19.31s.33.08.45.21a.72.72,0,0,1,.21.6c-.15,0,0,.18-.12.32a1.23,1.23,0,0,0-.15.35c-.17,0-.38.12-.35.35-.12.15-1.21.93-1.35.72a9,9,0,0,1-.36-.92,2.22,2.22,0,0,1-.74-.82c.06-.37-.91-1.09-1.06-1.1.12.5.55.76.75,1.15s.48,1.11.73,1.21c.43,0,.69.74.92.9s.91-.47,1.17-.4A1.86,1.86,0,0,1,24,100a4.94,4.94,0,0,1-1.06,1.8,6.58,6.58,0,0,0-.66,1c-.16.32.31,1,.18,1.18a1,1,0,0,1-.52,1.1c-.33.19-.62.38-.51.75s-.34.42-.4.63a1.2,1.2,0,0,1-.57.65l-.47,0a7.32,7.32,0,0,1-.85-.05c-.37-.47-.76-1-1.15-1.42-.24-.28-.57-.78-.22-1.14a2.22,2.22,0,0,0-.36-1c-.21-.35-1.16-1.09-.79-1.49.05-.26-.18-.53-.18-.74-.2-.16-.41.22-.61-.13s-.59-.27-.91,0a3,3,0,0,1-1,.11A2.3,2.3,0,0,1,13.26,99c.09-.33.11-.92.37-1.15.09-.35.49-.69.7-1s.3-.17.43-.32a4.4,4.4,0,0,1,.55-.72c.26-.21.81-.56.34-.63a4.19,4.19,0,0,0,.6-.9c.16-.13.47-.08.65-.17.16-.32.22-.31.16-.52s.45-.23.54-.26a2.18,2.18,0,0,0,.46-.33,7.19,7.19,0,0,1,9.07,5.79Z" style="fill:#60DDC3"/>
   <path d="M20.23,94c0,.13.46.11.53.13-.12,0,0,0,0,0,.42-.26-.87-.51-.88-.52a.1.1,0,0,0,.06-.07c-.23.09-.08-.17-.3.08.06.19-.2.32-.09.52S20,94.06,20.23,94Z" style="fill:#60DDC3"/>
   <path d="M18.53,94.52c-.23-.13-.06.05-.2.2s-.18.31-.49.19c0-.26.58,0,.31-.5-.13-.23-.26-.5-.52-.34s-.68.25-.86.6c-.11.11-.89.71-.88.77.3.24,1.48-.72,1.78-.44,0,.2-.25.35-.26.55.09,0,.11.12.21.14.39-.09.29.19.57.26.48.12.11,0,.42-.27.1-.1.63-.09.66.08,0-.1.22,0,0,0,.24,0,.47.19.64,0a.22.22,0,0,1,.32,0c.43.31.28-.9.3-1-.15.1-1,.19-1,.1s-.11-.11-.16-.24c.17-.2-.15-.1,0-.32a.27.27,0,0,0-.26,0c0,.14.07.09-.12.05-.06.16.15.26.12.4a.12.12,0,0,0-.09,0c0,.1,0,.08,0,.24-.29-.05-.13-.28-.38-.6.23-.18-.47-.54-.37-.65C17.78,93.89,18.66,94.41,18.53,94.52Zm-.91.19a.36.36,0,0,1-.15,0c0-.12.22-.57.33-.58C17.8,94.32,17.65,94.55,17.62,94.72Z" style="fill:#60DDC3"/>
   <path d="M17.62,94.72c0-.12-.08,0,0,0Z" style="fill:#60DDC3"/>
   <path d="M21.82,94.17c-.12,0,0,.4.21.38a.39.39,0,0,0,.44.07c0-.3-.79-.89-1-1,0,0,.05-.14.13-.13-.07-.32-.41-.06-.41.14S21.79,94,21.82,94.17Z" style="fill:#60DDC3"/>
   <path d="M22,94.55c-.14,0,.09.1,0,0Z" style="fill:#60DDC3"/>
   <path d="M22.4,93.65c-.12,0-.25-.29-.37-.33s0,.06,0,.11.06.09,0,0C22.06,93.5,22.27,93.8,22.4,93.65Z" style="fill:#60DDC3"/>
   <path d="M17,94.08a.24.24,0,0,1-.11.08v0S17,94.06,17,94.08Z" style="fill:#60DDC3"/>
   <path d="M24.6,132.12H18V130.8a1.31,1.31,0,1,0-2.63,0v1.31a2.63,2.63,0,0,0-2.63,2.63v13.14a2.63,2.63,0,0,0,2.63,2.63h9.2a2.63,2.63,0,0,0,2.63-2.63V134.75A2.63,2.63,0,0,0,24.6,132.12Zm-7.88,15.76H15.4v-1.31h1.31Zm0-2.63H15.4v-1.31h1.31Zm0-2.63H15.4v-1.31h1.31Zm2.63,5.25H18v-1.31h1.31Zm0-2.63H18v-1.31h1.31Zm0-2.63H18v-1.31h1.31ZM22,147.88H20.66v-1.31H22Zm0-2.63H20.66v-1.31H22Zm0-2.63H20.66v-1.31H22Zm2.63,5.25H23.28v-1.31H24.6Zm0-2.63H23.28v-1.31H24.6Zm0-2.63H23.28v-1.31H24.6Zm0-2.63H15.4v-5.25h9.2Z" style="fill:#60DDC3"/>
   <path d="M20,181.66l8.92-7.88a1.24,1.24,0,0,0-.18,0H11.25l-.11,0Z" style="fill:#60DDC3"/>
   <path d="M30,175a1.22,1.22,0,0,0-.08-.42l-6.3,5.56,6.22,5.44A1.22,1.22,0,0,0,30,185Z" style="fill:#60DDC3"/>
   <path d="M10.1,174.52a1.25,1.25,0,0,0-.1.48v10a1.24,1.24,0,0,0,.11.51l6.28-5.38Z" style="fill:#60DDC3"/>
   <path d="M22.67,181,20,183.34,17.34,181l-6.15,5.27H28.69Z" style="fill:#60DDC3"/>
   <path d="M25.91,217.92v-1.83a5.91,5.91,0,0,0-11.82,0v1.83H12.78v11.82H27.22V217.92Zm-5,9.2H18.74l.55-3a1.07,1.07,0,0,1-.55-.93,1.09,1.09,0,0,1,2.18,0,1.07,1.07,0,0,1-.55.93Zm2.37-9.2H16.72v-1.83a3.29,3.29,0,0,1,6.57,0Z" style="fill:#60DDC3"/>
   <path d="M29.6,265.38C29,264.45,27,263.87,25,263a23.22,23.22,0,0,1-2.47-1.12l0-1.92a3.59,3.59,0,0,0,1-2.38c.47.14,1-.7,1-1.14s-.06-1.6-.63-1.48a11.86,11.86,0,0,0,.16-2.1,3.83,3.83,0,0,0-4-3.16,3.82,3.82,0,0,0-4,3.16,11.71,11.71,0,0,0,.16,2.1c-.57-.12-.66,1.05-.63,1.48s.52,1.27,1,1.14a3.59,3.59,0,0,0,1,2.38l0,1.92A23.22,23.22,0,0,1,15,263c-2,.83-4,1.41-4.61,2.35s-.38,4.87-.38,4.87H30S30.14,266.22,29.6,265.38Z" style="fill:#b16408"/>
   <path d="M29.6,305.38C29,304.45,27,303.87,25,303a23.22,23.22,0,0,1-2.47-1.12l0-1.92a3.59,3.59,0,0,0,1-2.38c.47.14,1-.7,1-1.14s-.06-1.6-.63-1.48a11.86,11.86,0,0,0,.16-2.1,3.83,3.83,0,0,0-4-3.16,3.82,3.82,0,0,0-4,3.16,11.71,11.71,0,0,0,.16,2.1c-.57-.12-.66,1.05-.63,1.48s.52,1.27,1,1.14a3.59,3.59,0,0,0,1,2.38l0,1.92A23.22,23.22,0,0,1,15,303c-2,.83-4,1.41-4.61,2.35s-.38,4.87-.38,4.87H30S30.14,306.22,29.6,305.38Z" style="fill:#b16408"/>
   <path d="M20,330.15A9.85,9.85,0,1,0,29.85,340,9.85,9.85,0,0,0,20,330.15Zm2.69,15h0c.06,0,.07,0,.12-.07a.83.83,0,0,0,.07.34c-.14-.54.41-.56.66-.88.09-.13.25-.47.37-.52a.35.35,0,0,1,0,.31c0-.08,0,0,0,0a.71.71,0,0,1-.07.31.11.11,0,0,1,0-.06c-.44.35-.43,1.36-1,1.61-.32.13-.28-.3-.16-.45s-.07-.37,0-.6h0c-.11,0-.21-.29-.21-.45s.19-.1.2-.05a1.78,1.78,0,0,0,.18-.34C22.9,344.52,22.58,345,22.69,345.13Zm4.43-6.3c-.16-.32-.31-.68-.43-.87s-.34-.87-.65-1.12a.22.22,0,0,1,0,.28.68.68,0,0,1-.38-.28c0-.07.16.09.06-.11-.25,0-.43-.23-.64-.37-.36,0-.76.26-1.13,0-.09-.05-.17-.35-.3-.18a.2.2,0,0,1-.25.06c-.41-.13-.59-.48-1-.49,0,.16.27.39.4.47s.28.52.3.14c.24.14.07.44.41.33.26.1.19-.32.24-.44.08,0,.13.25.19.31s.33.08.45.21a.72.72,0,0,1,.21.6c-.15,0,0,.18-.12.32a1.23,1.23,0,0,0-.15.35c-.17,0-.38.12-.35.35-.12.15-1.21.93-1.35.72a9,9,0,0,1-.36-.92,2.22,2.22,0,0,1-.74-.82c.06-.37-.91-1.09-1.06-1.1.12.5.55.76.75,1.15s.48,1.11.73,1.21c.43,0,.69.74.92.9s.91-.47,1.17-.4A1.86,1.86,0,0,1,24,340a4.94,4.94,0,0,1-1.06,1.8,6.58,6.58,0,0,0-.66,1c-.16.32.31,1,.18,1.18a1,1,0,0,1-.52,1.1c-.33.19-.62.38-.51.75s-.34.42-.4.63a1.2,1.2,0,0,1-.57.65l-.47,0a7.32,7.32,0,0,1-.85-.05c-.37-.47-.76-1-1.15-1.42-.24-.28-.57-.78-.22-1.14a2.22,2.22,0,0,0-.36-1c-.21-.35-1.16-1.09-.79-1.49.05-.26-.18-.53-.18-.74-.2-.16-.41.22-.61-.13s-.59-.27-.91,0a3,3,0,0,1-1,.11,2.3,2.3,0,0,1-.65-2.34c.09-.33.11-.92.37-1.15.09-.35.49-.69.7-1s.3-.17.43-.32a4.4,4.4,0,0,1,.55-.72c.26-.21.81-.56.34-.63a4.19,4.19,0,0,0,.6-.9c.16-.13.47-.08.65-.17.16-.32.22-.31.16-.52s.45-.23.54-.26a2.18,2.18,0,0,0,.46-.33,7.19,7.19,0,0,1,9.07,5.79Z" style="fill:#b16408"/>
   <path d="M20.23,334c0,.13.46.11.53.13-.12,0,0,0,0,0,.42-.26-.87-.51-.88-.52a.1.1,0,0,0,.06-.07c-.23.09-.08-.17-.3.08.06.19-.2.32-.09.52S20,334.06,20.23,334Z" style="fill:#b16408"/>
   <path d="M18.53,334.52c-.23-.13-.06.05-.2.2s-.18.31-.49.19c0-.26.58,0,.31-.5-.13-.23-.26-.5-.52-.34s-.68.25-.86.6c-.11.11-.89.71-.88.77.3.24,1.48-.72,1.78-.44,0,.2-.25.35-.26.55.09,0,.11.12.21.14.39-.09.29.19.57.26.48.12.11,0,.42-.27.1-.1.63-.09.66.08,0-.1.22,0,0,0,.24,0,.47.19.64,0a.22.22,0,0,1,.32,0c.43.31.28-.9.3-1-.15.1-1,.19-1,.1s-.11-.11-.16-.24c.17-.2-.15-.1,0-.32a.27.27,0,0,0-.26,0c0,.14.07.09-.12.05-.06.16.15.26.12.4a.12.12,0,0,0-.09,0c0,.1,0,.08,0,.24-.29-.05-.13-.28-.38-.6.23-.18-.47-.54-.37-.65C17.78,333.89,18.66,334.41,18.53,334.52Zm-.91.19a.36.36,0,0,1-.15,0c0-.12.22-.57.33-.58C17.8,334.32,17.65,334.55,17.62,334.72Z" style="fill:#b16408"/>
   <path d="M17.62,334.72c0-.12-.08,0,0,0Z" style="fill:#b16408"/>
   <path d="M21.82,334.17c-.12,0,0,.4.21.38a.39.39,0,0,0,.44.07c0-.3-.79-.89-1-1,0,0,.05-.14.13-.13-.07-.32-.41-.06-.41.14S21.79,334,21.82,334.17Z" style="fill:#b16408"/>
   <path d="M22,334.55c-.14,0,.09.1,0,0Z" style="fill:#b16408"/>
   <path d="M22.4,333.65c-.12,0-.25-.29-.37-.33s0,.06,0,.11.06.09,0,0C22.06,333.5,22.27,333.8,22.4,333.65Z" style="fill:#b16408"/>
   <path d="M17,334.08a.24.24,0,0,1-.11.08v0S17,334.06,17,334.08Z" style="fill:#b16408"/>
   <path d="M24.6,372.12H18V370.8a1.31,1.31,0,0,0-2.63,0v1.31a2.63,2.63,0,0,0-2.63,2.63v13.14a2.63,2.63,0,0,0,2.63,2.63h9.2a2.63,2.63,0,0,0,2.63-2.63V374.75A2.63,2.63,0,0,0,24.6,372.12Zm-7.88,15.76H15.4v-1.31h1.31Zm0-2.63H15.4v-1.31h1.31Zm0-2.63H15.4v-1.31h1.31Zm2.63,5.25H18v-1.31h1.31Zm0-2.63H18v-1.31h1.31Zm0-2.63H18v-1.31h1.31ZM22,387.88H20.66v-1.31H22Zm0-2.63H20.66v-1.31H22Zm0-2.63H20.66v-1.31H22Zm2.63,5.25H23.28v-1.31H24.6Zm0-2.63H23.28v-1.31H24.6Zm0-2.63H23.28v-1.31H24.6Zm0-2.63H15.4v-5.25h9.2Z" style="fill:#b16408"/>
   <path d="M20,421.66l8.92-7.88a1.24,1.24,0,0,0-.18,0H11.25l-.11,0Z" style="fill:#b16408"/>
   <path d="M30,415a1.22,1.22,0,0,0-.08-.42l-6.3,5.56,6.22,5.44A1.22,1.22,0,0,0,30,425Z" style="fill:#b16408"/>
   <path d="M10.1,414.52a1.25,1.25,0,0,0-.1.48v10a1.24,1.24,0,0,0,.11.51l6.28-5.38Z" style="fill:#b16408"/>
   <path d="M22.67,421,20,423.34,17.34,421l-6.15,5.27H28.69Z" style="fill:#b16408"/>
   <path d="M25.91,457.92v-1.83a5.91,5.91,0,0,0-11.82,0v1.83H12.78v11.82H27.22V457.92Zm-5,9.2H18.74l.55-3a1.07,1.07,0,0,1-.55-.93,1.09,1.09,0,0,1,2.18,0,1.07,1.07,0,0,1-.55.93Zm2.37-9.2H16.72v-1.83a3.29,3.29,0,0,1,6.57,0Z" style="fill:#b16408"/>
</svg>