<?xml version="1.0" standalone="no"?>
<!DOCTYPE svg PUBLIC "-//W3C//DTD SVG 20010904//EN"
 "http://www.w3.org/TR/2001/REC-SVG-20010904/DTD/svg10.dtd">
<svg version="1.0" xmlns="http://www.w3.org/2000/svg"
 width="700.000000pt" height="700.000000pt" viewBox="0 0 700.000000 700.000000"
 preserveAspectRatio="xMidYMid meet">
<metadata>
Created by potrace 1.11, written by Peter Selinger 2001-2013
</metadata>
<g transform="translate(0.000000,700.000000) scale(0.100000,-0.100000)"
fill="#000000" stroke="none">
<path d="M228 6985 c-106 -29 -182 -108 -217 -225 -2 -8 -6 -241 -8 -518 l-4
-504 63 53 c161 134 423 280 648 361 172 61 435 128 565 142 28 4 60 8 73 10
135 27 566 27 722 1 14 -2 43 -6 65 -10 579 -84 1139 -368 1560 -790 337 -336
559 -695 709 -1146 42 -127 97 -371 111 -494 4 -33 9 -69 12 -80 2 -11 6 -94
9 -185 4 -139 2 -172 -12 -208 -64 -162 -276 -209 -403 -89 -50 47 -72 105
-77 200 -12 250 -31 395 -74 562 -150 578 -500 1071 -990 1391 -109 71 -256
150 -350 188 -36 15 -72 30 -80 35 -23 12 -203 68 -295 90 -353 87 -733 86
-1125 -4 -61 -14 -212 -63 -298 -97 -313 -122 -581 -306 -790 -541 l-42 -48 0
-197 0 -196 35 58 c96 160 328 374 569 526 226 142 527 255 761 285 17 2 46 7
65 10 125 21 274 21 322 1 129 -55 189 -204 131 -328 -47 -102 -123 -144 -283
-153 -91 -6 -111 -8 -182 -21 -18 -3 -42 -7 -53 -9 -37 -5 -170 -44 -246 -71
-116 -42 -295 -137 -370 -198 -15 -11 -39 -30 -55 -41 -57 -41 -219 -202 -279
-280 -147 -189 -248 -400 -300 -630 -13 -59 -17 -81 -31 -180 -8 -59 -9 -295
-1 -345 3 -19 9 -57 12 -85 10 -72 52 -236 79 -308 94 -250 226 -443 433 -635
58 -55 166 -136 231 -175 197 -117 429 -200 618 -223 23 -3 53 -7 65 -10 31
-6 273 -6 319 0 19 3 58 8 85 11 28 4 86 16 130 27 282 70 498 184 714 376 97
87 135 110 198 118 146 18 271 -92 272 -241 1 -105 -77 -202 -296 -366 -80
-60 -264 -179 -278 -179 -2 0 -40 -18 -85 -39 -155 -76 -426 -159 -578 -176
-32 -4 -86 -10 -122 -15 -87 -10 -413 -5 -470 8 -25 6 -65 13 -90 16 -143 18
-397 103 -565 189 -287 147 -599 413 -720 613 l-35 58 0 -196 0 -196 36 -44
c252 -304 682 -559 1119 -663 105 -25 126 -29 215 -41 30 -4 66 -8 80 -10 14
-2 88 -6 165 -9 117 -5 148 -10 191 -29 96 -44 141 -121 131 -225 -8 -91 -61
-157 -149 -187 -41 -13 -78 -15 -226 -10 -97 3 -187 8 -199 10 -19 4 -44 8
-153 22 -163 21 -422 89 -588 154 -201 78 -472 234 -574 329 -18 17 -37 31
-41 31 -5 0 -7 -213 -5 -472 3 -464 4 -474 26 -529 30 -76 90 -142 160 -176
l57 -28 3205 -3 c2873 -2 3212 0 3265 13 134 35 231 127 269 255 14 48 16 364
16 3240 0 3518 5 3234 -64 3334 -38 55 -104 105 -176 133 -43 17 -203 18
-3265 20 -2608 1 -3229 -1 -3267 -12z m1692 -2248 c104 -24 110 -25 179 -48
36 -12 110 -44 165 -72 427 -217 697 -657 699 -1136 2 -581 -396 -1094 -963
-1242 -25 -6 -58 -13 -75 -15 -16 -3 -41 -7 -55 -11 -62 -15 -306 -11 -405 7
-404 73 -745 329 -930 698 -146 293 -169 676 -59 984 143 398 475 705 878 812
50 14 113 28 141 31 27 3 51 8 53 9 9 10 317 -5 372 -17z"/>
<path d="M1628 4265 c-2 -2 -28 -6 -59 -9 -98 -11 -232 -63 -329 -129 -229
-156 -353 -412 -337 -696 7 -130 39 -236 102 -344 142 -242 396 -390 670 -390
55 0 114 2 130 5 229 44 415 164 537 350 41 61 91 175 103 233 5 22 10 47 12
55 3 8 6 63 9 122 3 89 0 122 -20 200 -41 160 -93 253 -201 364 -108 110 -257
195 -386 219 -13 3 -35 7 -49 10 -29 6 -178 14 -182 10z"/>
</g>
</svg>
